<svg aria-hidden="true" style="position: absolute; width: 0; height: 0; overflow: hidden;" version="1.1" xmlns="http://www.w3.org/2000/svg" xmlns:xlink="http://www.w3.org/1999/xlink">
<defs>
<symbol id="icon-frame4" viewBox="0 0 43 32">
<path fill="#aaa" style="fill: var(--color1, #aaa)" d="M42.842 10.806l0.001-5.28-8.344-0.027-0.005 1.159 5.018 0.016-8.941 4.176 0.001-5.82v-0.001c-0.001-0.205-0.122-0.394-0.321-0.498l-8.524-4.45c-0.096-0.051-0.211-0.080-0.332-0.080s-0.237 0.030-0.338 0.083l0.004-0.002-8.47 4.45c-0.198 0.104-0.32 0.294-0.32 0.498l-0.001 5.82-8.752-4.178 4.831-0.015-0.005-1.159-7.238 0.022-0.141-0.067-0.042 0.069-0.923 0.003-0.001 5.281h1.309l0.001-3.871 10.96 5.231-0.001 7.232-10.962 5.119 0.001-3.767h-1.309l-0.001 5.281 8.344 0.027 0.005-1.159-5.018-0.016 8.939-4.175-0.001 5.819c0 0.205 0.122 0.395 0.322 0.499l8.524 4.45c0.102 0.054 0.217 0.081 0.332 0.081s0.231-0.027 0.334-0.081l8.469-4.45c0.199-0.104 0.321-0.293 0.321-0.498l0.001-5.625 8.989 4.291-5.068 0.016 0.005 1.158 8.344-0.026 0.001-5.281h-1.309l-0.001 3.757-10.961-5.233 0.001-7.426 10.962-5.12-0.001 3.766 1.31-0.001zM21.396 1.252l7.237 3.779-7.185 3.775-7.238-3.779 7.185-3.775zM13.579 20.095l3.73-1.741-1.365-0.672-2.365 1.105 0.001-12.743 7.215 3.767-0.002 20.153-7.216-3.768v-6.1zM29.263 20.277l-0.001 5.92-7.161 3.762 0.002-20.15 7.161-3.762-0.001 12.914-2.725-1.301-1.265 0.713 3.99 1.904z"></path>
</symbol>
<symbol id="icon-frame5" viewBox="0 0 43 32">
<path fill="#aaa" style="fill: var(--color1, #aaa)" d="M35.224 6.785l3.211-2.662-1.45-0.815-3.223 2.662c-3.374-1.744-7.471-2.75-11.733-2.879v-1.808h3.557v-1.282h-8.978v1.282h3.556v1.808c-11.207 0.341-20.165 6.659-20.165 14.387-0.003 2.557 0.998 5.071 2.9 7.29l1.619-0.649c-1.733-2.022-2.643-4.311-2.64-6.641 0-7.236 8.628-13.121 19.229-13.121s19.229 5.898 19.229 13.123c0 7.226-8.636 13.131-19.237 13.131-3.959-0.004-7.817-0.835-11.034-2.377h4.071v-1.282h-7.362v5.049h1.88v-2.892c3.592 1.799 7.957 2.776 12.446 2.785 11.636 0 21.101-6.462 21.101-14.403 0.010-2.010-0.605-4-1.806-5.843s-2.963-3.499-5.172-4.863z"></path>
<path fill="#aaa" style="fill: var(--color1, #aaa)" d="M22.030 17.477h0.012v-10.623h-1.88v9.982h-11.859v1.282h13.727v-0.641z"></path>
</symbol>
<symbol id="icon-frame6" viewBox="0 0 43 32">
<path fill="#aaa" style="fill: var(--color1, #aaa)" d="M37.843 0h-33.067c-1.275 0.009-2.493 0.308-3.387 0.832s-1.392 1.231-1.384 1.966v2.474h2.163v-2.467c0-0.401 0.273-0.785 0.762-1.071s1.151-0.449 1.847-0.455h33.067c0.696 0.005 1.361 0.168 1.85 0.454s0.763 0.671 0.763 1.072v20.989h-38.293v-4.010h-2.163v5.282h42.609v-22.258c0.012-0.736-0.483-1.445-1.377-1.971s-2.112-0.827-3.39-0.836z"></path>
<path fill="#aaa" style="fill: var(--color1, #aaa)" d="M2.167 7.329h-2.163v10.408h2.163v-10.408zM8.999 30.729h-1.571v-4.72h-2.162v5.991h5.235l3.809-5.991-2.309 0.005-3.001 4.714zM35.186 30.729h-1.571l-3.001-4.72h-2.308l3.809 5.991h5.234v-5.991h-2.158l-0.005 4.72zM14.976 12.534c0.026 0.718 0.419 1.416 1.131 2.006s1.709 1.046 2.869 1.31 2.429 0.326 3.648 0.177c1.22-0.149 2.336-0.502 3.208-1.016s1.463-1.164 1.697-1.869c0.234-0.706 0.101-1.435-0.382-2.098s-1.295-1.228-2.333-1.626c-1.039-0.398-2.258-0.61-3.504-0.61-1.696 0.012-3.315 0.411-4.502 1.109s-1.846 1.639-1.831 2.616zM20.66 9.597v2.429h1.298v-2.429c1.269 0.095 2.427 0.465 3.24 1.034s1.219 1.295 1.137 2.031c-0.082 0.735-0.648 1.425-1.581 1.93s-2.165 0.785-3.444 0.785c-1.279 0-2.511-0.28-3.444-0.785s-1.499-1.194-1.581-1.93c-0.082-0.735 0.324-1.462 1.137-2.031s1.971-0.939 3.24-1.034zM21.958 6.268h-1.298v1.455h1.298v-1.455zM18.277 6.515l-1.218 0.259 0.843 1.368 1.218-0.262-0.843-1.366zM13.965 7.977l1.593 1.116 0.993-0.491-1.589-1.114-0.998 0.488zM11.762 9.729l2.141 0.727 0.649-0.659-2.141-0.727-0.649 0.659zM10.708 11.82l2.436 0.254 0.225-0.753-2.437-0.252-0.225 0.75zM10.708 13.246l0.225 0.75 2.437-0.252-0.225-0.753-2.436 0.254zM14.552 15.267l-0.649-0.659-2.141 0.727 0.644 0.659 2.145-0.727zM16.547 16.463l-0.993-0.488-1.589 1.114 0.993 0.491 1.589-1.116zM18.277 18.551l0.843-1.365-1.218-0.262-0.847 1.368 1.223 0.259zM21.958 17.345h-1.298v1.455h1.298v-1.455zM24.341 18.551l1.218-0.259-0.843-1.368-1.218 0.262 0.843 1.366zM26.067 16.465l1.593 1.114 0.993-0.491-1.593-1.114-0.993 0.491zM30.856 15.336l-2.141-0.727-0.649 0.661 2.141 0.727 0.649-0.661zM31.911 13.246l-2.436-0.252-0.225 0.75 2.436 0.252 0.225-0.75zM31.686 11.069l-2.436 0.254 0.225 0.75 2.436-0.252-0.225-0.753zM28.067 9.798l0.649 0.661 2.145-0.727-0.649-0.661-2.145 0.727zM26.072 8.603l0.993 0.491 1.589-1.114-0.993-0.491-1.589 1.114zM24.346 6.515l-0.848 1.368 1.218 0.259 0.847-1.365-1.218-0.262z"></path>
</symbol>
</defs>
</svg>
