<svg aria-hidden="true" style="position: absolute; width: 0; height: 0; overflow: hidden;" version="1.1" xmlns="http://www.w3.org/2000/svg" xmlns:xlink="http://www.w3.org/1999/xlink">
<defs>
<symbol id="icon-risk3" viewBox="0 0 32 32">
<path  d="M23.927 13.162l-21.39-0.002c-0.86 0-1.56-0.715-1.56-1.594s0.7-1.593 1.56-1.593l20.255 0.001v-0.997l-20.254-0.001c-1.399 0-2.537 1.162-2.537 2.59l-0.001 17.841c0 0.789 0.628 1.43 1.401 1.43l22.526 0.002c0.773 0 1.401-0.642 1.401-1.43l0.001-10.398v-4.42c-0-0.789-0.629-1.43-1.401-1.43zM24.351 29.41c0 0.001 0 0.002 0 0.004 0 0.236-0.189 0.427-0.424 0.43l-22.526-0.002c-0.235-0.003-0.425-0.194-0.425-0.43 0-0.001 0-0.002 0-0.004v0l0.001-15.804c0.315 0.252 0.688 0.43 1.097 0.508v0.045l21.852 0.002c0.235 0.003 0.425 0.194 0.425 0.43 0 0.001 0 0.003-0 0.004v-0l-0.001 4.42v10.398z"></path>
<path  d="M23.841 11.079h-20.587v0.598h20.587v-0.598z"></path>
<path  d="M29.573 4.187c-1.489-1.53-3.569-2.479-5.87-2.479-2.045 0-3.915 0.75-5.349 1.989l0.010-0.009 0.323-2.561-0.968-0.127-0.545 4.318 4.228 0.556 0.125-0.989-2.635-0.347c1.272-1.138 2.96-1.834 4.811-1.834 2.030 0 3.865 0.837 5.178 2.186l0.002 0.002c2.856 2.917 2.855 7.664-0.001 10.581l0.69 0.705c3.238-3.306 3.238-8.685 0.001-11.991z"></path>
</symbol>
<symbol id="icon-risk2" viewBox="0 0 40 32">
<path  d="M40.063 16.824c0-0.006 0-0.014 0-0.021 0-0.502-0.265-0.943-0.664-1.188l-0.006-0.003-0.255-0.156c0.433-1.226 1.314-5.424-4.316-10.539-3.019-2.745-7.612-4.396-12.932-4.651-4.811-0.233-9.796 0.683-13.686 2.507-4.858 2.28-7.997 6.016-8.194 9.752-0.124 2.36 0.866 5.865 6.287 9.164 3.159 1.922 6.879 2.642 10.412 2.642 2.327-0.002 4.583-0.296 6.737-0.848l-0.188 0.041-0.001 0.407-2.372 1.376c-0.691 0.405-1.23 1.355-1.227 2.162 0.001 0.457 0.18 0.823 0.489 1.004 0.137 0.080 0.291 0.119 0.454 0.119 0.21 0 0.434-0.065 0.654-0.195l2.078-1.205c0.057 0.166 0.142 0.319 0.252 0.454-0.435 0.475-0.732 1.152-0.73 1.751 0.001 0.457 0.18 0.823 0.489 1.005 0.137 0.080 0.291 0.119 0.454 0.119 0.21 0 0.433-0.065 0.654-0.195l1.725-1 3.666 2.234c0.231 0.142 0.486 0.213 0.742 0.213 0.339-0.001 0.65-0.12 0.894-0.319l-0.003 0.002 7.491-5.008c0.661-0.411 1.095-1.133 1.095-1.956 0-0.003 0-0.007-0-0.010v0l-0.023-7.416c0.013-0.079 0.023-0.159 0.023-0.241zM31.423 21.269c-0.118-0.121-0.251-0.228-0.395-0.317l-0.009-0.005-5.101-3.108 6.593-3.964c0.521-0.31 1.167-0.307 1.685 0.009l4.57 2.788c0.047 0.027 0.079 0.078 0.079 0.136 0 0.002-0 0.004-0 0.007v-0c0 0.001 0 0.002 0 0.004 0 0.058-0.032 0.108-0.078 0.135l-0.001 0-7.343 4.315zM6.922 20.624c-3.878-2.359-5.848-5.138-5.695-8.034 0.172-3.277 3.042-6.607 7.488-8.693 7.377-3.46 19.302-3.504 25.296 1.943 4.776 4.339 4.393 7.774 4.056 8.962l-3.244-1.98c-0.419-0.26-0.927-0.414-1.472-0.414-0.107 0-0.213 0.006-0.317 0.018l0.013-0.001c-1.118-3.437-5.121-7.063-11.72-7.601-2.308-0.188-4.775 0.021-7.332 0.623-2.002 0.472-3.095 1.030-4.308 1.833l0.666 1.038c1.124-0.745 2.082-1.232 3.917-1.664 2.435-0.574 4.776-0.774 6.96-0.595 6.039 0.493 9.67 3.709 10.658 6.75l-7.795 4.685c-0.030 0.014-0.060 0.028-0.090 0.044-0.442 0.256-0.734 0.726-0.734 1.265 0 0.003 0 0.007 0 0.011v-0.001l-0.009 3.43c-4.685 1.244-11.3 1.446-16.339-1.619zM20.891 27.752c-0.157 0.091-0.301 0.12-0.379 0.075-0.076-0.045-0.124-0.183-0.124-0.362-0.002-0.547 0.393-1.242 0.86-1.515l4.474-2.593 0.004 1.592-4.834 2.803zM24.088 29.681c-0.157 0.092-0.302 0.12-0.38 0.075-0.075-0.044-0.123-0.183-0.124-0.361-0.001-0.546 0.393-1.242 0.86-1.515l4.474-2.593 0.004 1.592-4.834 2.803zM27.392 28.621l2.078-1.205c0.111-0.066 0.184-0.185 0.184-0.322 0-0.001 0-0.001 0-0.002v0l-0.006-2.447c-0-0.135-0.072-0.254-0.18-0.319l-0.002-0.001c-0.052-0.032-0.116-0.050-0.184-0.050s-0.13 0.018-0.183 0.050l0.002-0.001-4.49 2.603-0.034-0.020c-0.066-0.042-0.11-0.114-0.11-0.197 0-0.001 0-0.002 0-0.002v0-0.173l1.806-1.047c0.111-0.066 0.184-0.185 0.184-0.322 0-0.001 0-0.002 0-0.002v0l-0.006-2.447c-0-0.135-0.073-0.254-0.18-0.319l-0.002-0.001c-0.052-0.032-0.116-0.050-0.184-0.050s-0.13 0.018-0.183 0.050l0.002-0.001-1.427 0.827 0.012-4.405c0-0.116 0.072-0.174 0.114-0.199 0.032-0.020 0.070-0.031 0.111-0.031 0.043 0 0.084 0.013 0.117 0.035l5.56 3.388c0.272 0.166 0.44 0.469 0.439 0.792l-0.021 7.498c0 0.002 0 0.004 0 0.006 0 0.061-0.025 0.116-0.066 0.155l-0 0-0.078 0.051c-0.025 0.011-0.054 0.017-0.084 0.017-0.043 0-0.082-0.013-0.115-0.034l0.001 0-3.077-1.875zM38.337 25.386l-6.305 4.215 0.019-6.795c0.001-0.152-0.019-0.3-0.049-0.445l6.823-4.008 0.019 6.133c0 0.001 0 0.003 0 0.005 0 0.378-0.201 0.71-0.502 0.894l-0.005 0.003z"></path>
</symbol>
<symbol id="icon-risk1" viewBox="0 0 32 32">
<path  d="M22.070 13.973l1.032 1.833 0.509-0.299-1.043-1.851 0.663 0.175 0.147-0.58-1.623-0.429-0.422 1.661 0.568 0.15 0.168-0.66zM19.696 15.387l1.033 1.833 0.509-0.299-1.043-1.851 0.664 0.175 0.147-0.58-1.623-0.429-0.422 1.661 0.568 0.15 0.168-0.66zM20.828 18.755l4.138-2.474-0.297-0.517-4.137 2.474 0.296 0.517z"></path>
<path  d="M22.256 21.746l7.082-4.354-9.665-16.392-9.232 5.675 8.703 14.76c-2.075 0.555-3.531 2.566-3.357 4.824 0.188 2.412 2.169 4.247 4.499 4.247 0.119 0 0.24-0.005 0.361-0.015 2.483-0.201 4.341-2.427 4.145-4.962-0.126-1.659-1.113-3.061-2.51-3.771l-0.026-0.012zM19.339 2.371l8.657 14.681-6.981 4.291c-0.218-0.038-0.469-0.060-0.724-0.060-0.033 0-0.065 0-0.098 0.001l0.005-0-8.414-14.27 7.555-4.645zM20.57 29.496c-1.946 0.159-3.653-1.33-3.808-3.316s1.302-3.73 3.247-3.887c0.085-0.007 0.185-0.012 0.285-0.012 0.88 0 1.684 0.328 2.295 0.868l-0.004-0.003c0.697 0.61 1.157 1.477 1.23 2.451l0.001 0.012c0.155 1.986-1.302 3.73-3.247 3.887z"></path>
<path  d="M20.214 24.913c-0.53 0.043-0.926 0.518-0.884 1.058 0.040 0.515 0.463 0.907 0.96 0.907 0.025 0 0.051-0.001 0.076-0.003 0.53-0.043 0.927-0.517 0.885-1.058s-0.51-0.948-1.038-0.903zM20.32 26.279c-0.008 0.001-0.017 0.001-0.026 0.001-0.201 0-0.366-0.156-0.379-0.354l-0-0.001c-0.001-0.010-0.001-0.021-0.001-0.032 0-0.21 0.168-0.38 0.377-0.383h0c0.194 0 0.36 0.154 0.375 0.355 0.001 0.010 0.001 0.021 0.001 0.032 0 0.199-0.152 0.363-0.346 0.382l-0.002 0zM16.859 21.779l0.314-0.273-10.664-18.331c-0.526-0.904-1.452-1.485-2.479-1.557l-2.464-0.173-0.067 0.997 2.464 0.173c0.706 0.050 1.343 0.45 1.705 1.071l10.25 17.619c-1.329 1.323-2.027 3.197-1.879 5.096l0.975-0.079c-0.134-1.722 0.556-3.421 1.844-4.543zM30.224 18.966l-5.658 3.447 0.568 0.817 5.59-3.406-0.5-0.858z"></path>
</symbol>
</defs>
</svg>
