<svg aria-hidden="true" style="position: absolute; width: 0; height: 0; overflow: hidden;" version="1.1" xmlns="http://www.w3.org/2000/svg" xmlns:xlink="http://www.w3.org/1999/xlink">
<defs>
<symbol id="icon-Frame-7-1" viewBox="0 0 415 32">
<path fill="#fff4cb" style="fill: var(--color1, #fff4cb)" d="M12.681 0.198l3.323 7.494 8.308 1.057c0.35 0.089 0.437 0.441 0.174 0.705l-5.946 5.554 1.574 8.199c0 0.352-0.35 0.616-0.613 0.441l-7.084-4.056-7.258 4.056c-0.351 0.175-0.613-0.089-0.613-0.441l1.662-8.023-6.121-5.73c-0.175-0.264-0.088-0.616 0.262-0.705l8.046-0.882 3.585-7.668c0.073-0.119 0.202-0.198 0.35-0.198s0.277 0.079 0.349 0.196l0.001 0.002zM41.126 0.198l3.323 7.494 8.308 1.057c0.35 0.089 0.437 0.441 0.174 0.705l-5.946 5.554 1.574 8.199c0 0.352-0.35 0.616-0.613 0.441l-7.084-4.056-7.258 4.056c-0.351 0.175-0.613-0.089-0.613-0.441l1.662-8.023-6.121-5.73c-0.175-0.264-0.088-0.616 0.262-0.705l8.046-0.882 3.585-7.668c0.073-0.119 0.202-0.198 0.35-0.198s0.277 0.079 0.349 0.196l0.001 0.002zM69.57 0.198l3.323 7.494 8.308 1.057c0.35 0.089 0.437 0.441 0.174 0.705l-5.946 5.554 1.574 8.199c0 0.352-0.35 0.616-0.613 0.441l-7.084-4.056-7.258 4.056c-0.35 0.175-0.613-0.089-0.613-0.441l1.662-8.023-6.121-5.73c-0.175-0.264-0.088-0.616 0.262-0.705l8.046-0.882 3.585-7.668c0.073-0.119 0.202-0.198 0.35-0.198s0.277 0.079 0.349 0.196l0.001 0.002zM98.015 0.198l3.323 7.494 8.308 1.057c0.35 0.089 0.437 0.441 0.174 0.705l-5.946 5.554 1.574 8.199c0 0.352-0.35 0.616-0.613 0.441l-7.084-4.056-7.258 4.056c-0.351 0.175-0.613-0.089-0.613-0.441l1.662-8.023-6.121-5.73c-0.175-0.264-0.088-0.616 0.262-0.705l8.046-0.882 3.585-7.668c0.073-0.119 0.202-0.198 0.35-0.198s0.277 0.079 0.349 0.196l0.001 0.002zM126.459 0.198l3.323 7.494 8.308 1.057c0.35 0.089 0.437 0.441 0.174 0.705l-5.946 5.554 1.574 8.199c0 0.352-0.35 0.616-0.613 0.441l-7.084-4.056-7.258 4.056c-0.351 0.175-0.613-0.089-0.613-0.441l1.662-8.023-6.121-5.73c-0.175-0.264-0.088-0.616 0.262-0.705l8.046-0.882 3.585-7.668c0.073-0.119 0.202-0.198 0.35-0.198s0.277 0.078 0.349 0.196l0.001 0.002z"></path>
</symbol>
</defs>
</svg>
