<svg aria-hidden="true" style="position: absolute; width: 0; height: 0; overflow: hidden;" version="1.1" xmlns="http://www.w3.org/2000/svg" xmlns:xlink="http://www.w3.org/1999/xlink">
<defs>
<symbol id="icon-Logo" viewBox="0 0 32 32">
<path d="M22.426 22.896c0.010-0.001 0.021-0.001 0.032-0.001s0.022 0 0.033 0.001l-0.001-0h2.124c0.041 0.044 0.069 0.1 0.080 0.161l0 0.002c0.379 1.135 0.76 2.27 1.143 3.405l1.217 3.616c0 0.054 0.038 0.106 0.067 0.179 0.029-0.070 0.051-0.118 0.067-0.166l1.341-3.958 1.044-3.094c0.019-0.054 0.042-0.109 0.064-0.166h2.196c0.009 0.015 0.016 0.032 0.019 0.050l0 0.001v8.851c0.003 0.019 0.003 0.038 0 0.058h-1.469v-6.957c0.002-0.017 0.004-0.037 0.004-0.056 0-0.054-0.009-0.106-0.027-0.155l0.001 0.003c-0.105 0.256-0.175 0.499-0.259 0.733s-0.163 0.48-0.246 0.72-0.16 0.47-0.243 0.704c-0.083 0.234-0.163 0.477-0.245 0.717l-0.246 0.72c-0.083 0.24-0.163 0.48-0.246 0.717s-0.163 0.48-0.246 0.72-0.16 0.467-0.243 0.704c-0.083 0.237-0.163 0.477-0.245 0.717s-0.163 0.48-0.243 0.714c-0.124 0.026-1.194 0.035-1.523 0-0.051-0.035-0.058-0.099-0.073-0.15l-0.812-2.307-1.526-4.48c0-0.048-0.035-0.096-0.058-0.147-0.041 0-0.026 0.048-0.026 0.067v7.037c-0.019 0.009-0.042 0.016-0.065 0.019l-0.001 0h-1.386c-0.008-0.023-0.016-0.050-0.022-0.079l-0.001-0.004v-8.688c-0.003-0.018-0.004-0.040-0.004-0.062 0-0.051 0.009-0.101 0.024-0.146l-0.001 0.003zM9.018 27.302c0 0.026 0.001 0.056 0.001 0.086 0 0.806-0.185 1.569-0.515 2.249l0.013-0.031c-0.546 1.109-1.537 1.929-2.733 2.234l-0.029 0.006c-0.562 0.147-1.146 0.193-1.724 0.134-0.589-0.051-1.131-0.206-1.624-0.447l0.027 0.012c-1.022-0.507-1.796-1.387-2.153-2.457l-0.009-0.030c-0.174-0.495-0.275-1.067-0.275-1.661 0-0.070 0.001-0.139 0.004-0.208l-0 0.010c0.012-0.593 0.128-1.156 0.331-1.675l-0.011 0.033c0.26-0.725 0.69-1.335 1.243-1.804l0.006-0.005c0.547-0.464 1.223-0.792 1.967-0.923l0.025-0.004c0.29-0.064 0.624-0.1 0.966-0.1 0.57 0 1.116 0.101 1.622 0.287l-0.033-0.011c1.241 0.436 2.197 1.406 2.606 2.626l0.009 0.030c0.148 0.419 0.236 0.856 0.262 1.299 0.013 0.131 0.022 0.275 0.026 0.349zM7.478 27.27c-0.003-0.24-0.028-0.471-0.074-0.696l0.004 0.024c-0.071-0.423-0.212-0.802-0.413-1.142l0.008 0.015c-0.36-0.629-0.949-1.091-1.652-1.276l-0.019-0.004c-0.239-0.065-0.514-0.103-0.798-0.103s-0.559 0.037-0.82 0.108l0.022-0.005c-0.632 0.158-1.162 0.523-1.528 1.017l-0.005 0.007c-0.244 0.318-0.431 0.693-0.538 1.101l-0.005 0.022c-0.079 0.305-0.124 0.654-0.124 1.014 0 0.14 0.007 0.278 0.020 0.414l-0.001-0.017c0.034 0.432 0.139 0.831 0.303 1.197l-0.009-0.023c0.305 0.721 0.887 1.274 1.61 1.533l0.019 0.006c0.301 0.111 0.649 0.175 1.012 0.175 0.126 0 0.25-0.008 0.372-0.023l-0.015 0.001c1.069-0.097 1.956-0.785 2.337-1.732l0.007-0.019c0.203-0.507 0.301-1.050 0.288-1.597zM32 4.576c0.001 0.028 0.001 0.062 0.001 0.095 0 0.748-0.159 1.459-0.445 2.101l0.013-0.033c-0.544 1.225-1.625 2.127-2.936 2.414l-0.028 0.005c-0.339 0.087-0.728 0.137-1.129 0.137-0.555 0-1.088-0.096-1.583-0.272l0.033 0.010c-1.275-0.427-2.258-1.416-2.667-2.665l-0.008-0.030c-0.166-0.481-0.262-1.035-0.262-1.612 0-0.068 0.001-0.136 0.004-0.203l-0 0.010c0.007-0.581 0.11-1.135 0.292-1.652l-0.011 0.036c0.253-0.741 0.681-1.366 1.236-1.85l0.005-0.004c0.549-0.479 1.23-0.819 1.982-0.961l0.026-0.004c0.294-0.064 0.632-0.101 0.978-0.101 0.565 0 1.107 0.098 1.61 0.278l-0.033-0.010c1.25 0.43 2.214 1.401 2.626 2.627l0.009 0.029c0.148 0.412 0.238 0.843 0.265 1.28 0.010 0.15 0.019 0.298 0.022 0.374zM30.467 4.653c0-0.173-0.022-0.349-0.042-0.522-0.045-0.447-0.169-0.856-0.36-1.225l0.009 0.019c-0.333-0.679-0.92-1.19-1.634-1.416l-0.019-0.005c-0.278-0.089-0.597-0.14-0.929-0.14-0.164 0-0.324 0.012-0.481 0.036l0.018-0.002c-0.723 0.091-1.346 0.455-1.775 0.984l-0.004 0.005c-0.311 0.382-0.535 0.847-0.636 1.356l-0.003 0.020c-0.060 0.264-0.094 0.568-0.094 0.88 0 0.156 0.009 0.309 0.025 0.46l-0.002-0.019c0.045 0.438 0.17 0.864 0.367 1.258 0.305 0.636 0.831 1.126 1.476 1.376l0.019 0.006c0.321 0.126 0.693 0.199 1.082 0.199 0.11 0 0.219-0.006 0.326-0.017l-0.013 0.001c0.445-0.036 0.853-0.168 1.212-0.375l-0.014 0.007c0.552-0.334 0.973-0.839 1.194-1.44l0.006-0.019c0.168-0.423 0.268-0.913 0.271-1.426v-0.002zM5.288 5.12l0.154 0.070c0.422 0.178 0.76 0.511 0.945 0.931 0.096 0.211 0.168 0.432 0.214 0.659 0.157 0.73 0.314 1.457 0.467 2.182 0 0.058 0.022 0.112 0.032 0.179-0.023 0.007-0.050 0.013-0.078 0.016l-0.002 0h-1.45c0-0.032-0.029-0.070-0.038-0.109-0.128-0.608-0.256-1.216-0.387-1.824-0.032-0.157-0.077-0.32-0.118-0.461-0.011-0.039-0.024-0.073-0.040-0.106l0.001 0.003c-0.185-0.545-0.661-0.942-1.238-1.011l-0.007-0.001c-0.155-0.023-0.336-0.037-0.519-0.038h-1.327c-0.013-0.003-0.029-0.004-0.044-0.004-0.042 0-0.082 0.011-0.117 0.030l0.001-0.001c-0.019 0.163 0 0.32 0 0.499v3.011c-0.023 0.006-0.051 0.012-0.080 0.016l-0.003 0h-1.369c-0.011 0.001-0.023 0.002-0.035 0.002s-0.025-0.001-0.037-0.002l0.002 0v-0.093c-0.001-0.014-0.001-0.030-0.001-0.046s0-0.033 0.001-0.049l-0 0.002v-8.797c0.045-0.003 0.090-0.003 0.134 0h3.612c0.013-0 0.027-0 0.042-0 0.429 0 0.841 0.069 1.227 0.197l-0.028-0.008c0.236 0.077 0.46 0.185 0.668 0.32 0.46 0.301 0.801 0.752 0.954 1.283l0.004 0.016c0.068 0.23 0.108 0.493 0.108 0.766s-0.039 0.537-0.113 0.786l0.005-0.020c-0.177 0.634-0.603 1.146-1.163 1.434l-0.013 0.006c-0.054 0.032-0.111 0.058-0.169 0.086l-0.195 0.070zM1.737 4.262h2.322c0.168-0.006 0.335-0.042 0.492-0.102 0.394-0.144 0.691-0.469 0.793-0.871l0.002-0.009c0.029-0.105 0.045-0.226 0.045-0.35 0-0.048-0.002-0.095-0.007-0.142l0 0.006c-0.026-0.519-0.356-0.954-0.815-1.133l-0.009-0.003c-0.173-0.073-0.373-0.116-0.583-0.118h-2.061c-0.015-0.003-0.032-0.005-0.050-0.005-0.041 0-0.080 0.009-0.115 0.024l0.002-0.001c-0.022 0.157-0.032 1.6 0 2.582-0.026 0.019-0.019 0.064-0.016 0.122z"></path>
</symbol>
<symbol id="icon-Frame1" viewBox="0 0 27 32">
<path d="M1.32 12.155c0-6.708 5.431-12.155 12.12-12.155 6.691 0 12.121 5.447 12.121 12.155 0 4.895-3.484 9.301-6.399 12.983l-5.159 6.579c-0.329 0.335-0.801 0.416-1.12 0.009-0.202-0.241-0.747-0.944-1.287-1.65l-0.374-0.509c-1.152-1.511-2.32-3.041-3.513-4.439-2.913-3.683-6.389-8.083-6.389-12.973zM24.144 12.155c0-5.933-4.787-10.733-10.703-10.733-5.917 0-10.704 4.8-10.704 10.733 0 4.4 3.308 8.587 6.077 12.091 0.972 1.307 2.009 2.605 3.040 3.897 0.533 0.667 1.065 1.333 1.587 1.997l4.619-5.887c2.771-3.504 6.084-7.695 6.084-12.099z"></path>
<path d="M8.245 11.853c0-3.269 2.589-5.928 5.772-5.928s5.773 2.659 5.773 5.927c0 3.268-2.591 5.925-5.773 5.925-3.187 0-5.772-2.653-5.772-5.925zM18.441 11.853c0-2.513-1.976-4.543-4.424-4.543-2.447 0-4.423 2.029-4.423 4.541 0 2.509 1.979 4.541 4.423 4.541 2.447 0 4.424-2.028 4.424-4.541z"></path>
</symbol>
<symbol id="icon-Frame2" viewBox="0 0 32 32">
<path d="M0.013 0.934c0 0.515 0.346 0.934 0.771 0.934h2.688c0.979 0 1.802 0.709 2.111 1.838l4.074 14.822-2.317 7.028c-0.207 0.625 0.177 1.266 0.712 1.28h16.957c0.424 0 0.769-0.417 0.769-0.933s-0.346-0.934-0.769-0.934h-15.823l1.807-5.476h14.016c0.34 0 0.628-0.269 0.731-0.64l4.814-13.138c0.23-0.631-0.156-1.288-0.7-1.311h-22.463l-0.353-1.283c-0.516-1.885-1.928-3.123-3.565-3.123h-2.689c-0.425 0-0.771 0.419-0.771 0.934zM11.025 17.626l-3.121-11.351h20.768l-4.16 11.352h-13.487zM9.635 27.871c0.966 0 1.748 0.925 1.748 2.066 0 1.139-0.782 2.063-1.748 2.063s-1.75-0.924-1.75-2.063c0-1.14 0.783-2.066 1.75-2.066zM23.628 27.871c0.965 0 1.748 0.925 1.748 2.066 0 1.139-0.783 2.063-1.748 2.063-0.966 0-1.75-0.924-1.75-2.063 0-1.14 0.783-2.066 1.75-2.066z"></path>
</symbol>
</defs>
</svg>
